# xmcd CD database file
#
# Track frame offsets:
#	150
#	14357
#	27072
#	67269
#	73730
#	86925
#	100005
#	105567
#	113483
#	133172
#	161065
#	189480
#	223366
#	243975
#	264061
#	309782
#	325050
#
# Disc length: 4340 seconds
#
# Revision: 1
# Processed by: cddbd v1.5.2PL0 Copyright (c) Steve Scherf et al.
# Submitted via: CDex 1.51
#
DISCID=e910f211
DTITLE=Hallé Orchestra - Elder - Schiff - Cello Concerto in E minor Op.85
DYEAR=2003
DGENRE=Concerto
TTITLE0=Falstaff, Symphonic Study in C minor Op.68 -I- Falstaff and Prince Henry
TTITLE1=Falstaff, Symphonic Study in C minor Op.68 -IIa- Eastcheap
TTITLE2=Falstaff, Symphonic Study in C minor Op.68 -IIb- Gadshill
TTITLE3=Falstaff, Symphonic Study in C minor Op.68 -IIc- The Boar's Head, Revelry and Falstaff
TTITLE4=Falstaff, Symphonic Study in C minor Op.68 -IId- Dream Interlude
TTITLE5=Falstaff, Symphonic Study in C minor Op.68 -IIIa- Falstaff's March
TTITLE6=Falstaff, Symphonic Study in C minor Op.68 -IIIb- The Return through Gloucester
TTITLE7=Falstaff, Symphonic Study in C minor Op.68 -IIIc- Second Interlude
TTITLE8=Falstaff, Symphonic Study in C minor Op.68 -IVa- King Henry V's Progress
TTITLE9=Falstaff, Symphonic Study in C minor Op.68 -IVb- The Repudiation of Falstaff
TTITLE10=Romance for Bassoon and Orchestra Op.62
TTITLE11=Cello Concerto in E minor Op.85 -I- Adagio - moderato
TTITLE12=Cello Concerto in E minor Op.85 -II- Lento - Allegro molto
TTITLE13=Cello Concerto in E minor Op.85 -III- Adagio
TTITLE14=Cello Concerto in E minor Op.85 -IV- Allegro ma non troppo
TTITLE15=Smoking Cantata (1919)
TTITLE16=Data track
EXTD=YEAR: 2003
EXTT0=
EXTT1=
EXTT2=
EXTT3=
EXTT4=
EXTT5=
EXTT6=
EXTT7=
EXTT8=
EXTT9=
EXTT10=
EXTT11=
EXTT12=
EXTT13=
EXTT14=
EXTT15=
EXTT16=
PLAYORDER=
